<svg width="38" height="29" viewBox="0 0 38 29" fill="none" xmlns="http://www.w3.org/2000/svg">
<g filter="url(#filter0_d_26_48)">
<path fill-rule="evenodd" clip-rule="evenodd" d="M8.5 0C7.30653 0 6.16193 0.474106 5.31802 1.31802C4.47411 2.16193 4 3.30653 4 4.5V16.5C4 17.6935 4.47411 18.8381 5.31802 19.682C6.16193 20.5259 7.30653 21 8.5 21H23.5C24.6935 21 25.8381 20.5259 26.682 19.682C27.5259 18.8381 28 17.6935 28 16.5V14.121L31.4395 17.5605C31.6493 17.7702 31.9165 17.913 32.2075 17.9709C32.4984 18.0287 32.7999 17.999 33.074 17.8855C33.348 17.772 33.5823 17.5798 33.7471 17.3332C33.9119 17.0866 33.9999 16.7966 34 16.5V4.5C33.9999 4.20337 33.9119 3.91343 33.7471 3.66681C33.5823 3.4202 33.348 3.22799 33.074 3.11448C32.7999 3.00098 32.4984 2.97127 32.2075 3.02912C31.9165 3.08698 31.6493 3.22979 31.4395 3.4395L28 6.879V4.5C28 3.30653 27.5259 2.16193 26.682 1.31802C25.8381 0.474106 24.6935 0 23.5 0H8.5Z" fill="white"/>
</g>
<defs>
<filter id="filter0_d_26_48" x="0" y="0" width="38" height="29" filterUnits="userSpaceOnUse" color-interpolation-filters="sRGB">
<feFlood flood-opacity="0" result="BackgroundImageFix"/>
<feColorMatrix in="SourceAlpha" type="matrix" values="0 0 0 0 0 0 0 0 0 0 0 0 0 0 0 0 0 0 127 0" result="hardAlpha"/>
<feOffset dy="4"/>
<feGaussianBlur stdDeviation="2"/>
<feComposite in2="hardAlpha" operator="out"/>
<feColorMatrix type="matrix" values="0 0 0 0 0 0 0 0 0 0 0 0 0 0 0 0 0 0 0.25 0"/>
<feBlend mode="normal" in2="BackgroundImageFix" result="effect1_dropShadow_26_48"/>
<feBlend mode="normal" in="SourceGraphic" in2="effect1_dropShadow_26_48" result="shape"/>
</filter>
</defs>
</svg>
